Coordinates
version=1
nRows=9
nColumns=63
inDegrees=yes

Units are S.I. units (second, meters, Newtons, ...)
If the header above contains a line with 'inDegrees', this indicates whether rotational values are in degrees (yes) or radians (no).

endheader
time	pelvis_tilt	pelvis_list	pelvis_rotation	pelvis_tx	pelvis_ty	pelvis_tz	hip_flexion_r	hip_adduction_r	hip_rotation_r	knee_angle_r	knee_angle_r_beta	ankle_angle_r	subtalar_angle_r	mtp_angle_r	hip_flexion_l	hip_adduction_l	hip_rotation_l	knee_angle_l	knee_angle_l_beta	ankle_angle_l	subtalar_angle_l	mtp_angle_l	L5_S1_Flex_Ext	L5_S1_Lat_Bending	L5_S1_axial_rotation	L4_L5_Flex_Ext	L4_L5_Lat_Bending	L4_L5_axial_rotation	L3_L4_Flex_Ext	L3_L4_Lat_Bending	L3_L4_axial_rotation	L2_L3_Flex_Ext	L2_L3_Lat_Bending	L2_L3_axial_rotation	L1_L2_Flex_Ext	L1_L2_Lat_Bending	L1_L2_axial_rotation	L1_T12_Flex_Ext	L1_T12_Lat_Bending	L1_T12_axial_rotation	Abs_r3	Abs_r2	Abs_r1	Abs_t1	Abs_t2	neck_flexion	neck_bending	neck_rotation	arm_flex_r	arm_add_r	arm_rot_r	elbow_flex_r	pro_sup_r	wrist_flex_r	wrist_dev_r	arm_flex_l	arm_add_l	arm_rot_l	elbow_flex_l	pro_sup_l	wrist_flex_l	wrist_dev_l
1.355932	6.895564	-1.950666	84.758884	0.359402	0.911430	0.654235	9.695195	6.074524	-1.586286	21.426386	0.373961	42.650230	10.173007	0.000000	3.392763	-10.418640	-17.834490	10.218670	0.178349	41.602336	7.022113	0.000000	0.178517	0.801199	-0.859950	0.331524	1.065595	-0.913697	0.293285	1.948036	-0.913697	0.204027	1.948036	-0.752456	0.165771	1.633805	-0.698709	0.102005	1.241058	-0.644962	1.275128	9.063326	-4.782783	0.000000	0.000000	16.959894	-4.838152	5.600699	3.387071	-16.853131	-6.994982	49.280950	80.400025	-6.749886	6.718765	-4.323801	-9.713104	-58.716820	75.248804	53.600956	-17.757457	-6.643287
1.372881	6.846613	-1.784960	84.510039	0.360431	0.911897	0.654048	9.529411	5.988494	-1.918716	21.454646	0.374454	42.766632	10.899844	0.000000	3.188981	-10.398731	-17.797392	10.256937	0.179017	41.585591	6.753158	0.000000	0.176074	0.787026	-0.797728	0.326987	1.046744	-0.847586	0.289272	1.913574	-0.847586	0.201235	1.913574	-0.698012	0.163502	1.604903	-0.648154	0.100609	1.219103	-0.598296	1.257679	8.902991	-4.436723	0.000000	0.000000	16.597630	-4.825320	5.027465	3.471529	-16.648630	-8.900339	50.216777	80.982858	-6.688379	6.534328	-3.414220	-9.530315	-59.058473	75.604830	52.988393	-18.016938	-6.388549
1.389831	6.770042	-1.639147	84.121809	0.361654	0.912382	0.653823	9.376480	5.900038	-2.098971	21.486893	0.375017	42.826821	11.620307	0.000000	2.967386	-10.357154	-17.895477	10.282811	0.179469	41.567543	6.491436	0.000000	0.174859	0.770144	-0.723093	0.324731	1.024291	-0.768286	0.287277	1.872527	-0.768286	0.199847	1.872527	-0.632706	0.162374	1.570477	-0.587513	0.099915	1.192953	-0.542319	1.249004	8.712020	-4.021624	0.000000	0.000000	16.251263	-4.746791	4.505339	3.659087	-16.459558	-10.549460	51.177390	81.540271	-6.755468	6.488022	-2.449937	-9.304712	-59.475739	75.850234	53.185135	-17.941430	-5.892525
1.406780	6.667328	-1.503393	83.594598	0.363081	0.912886	0.653588	9.224637	5.813930	-2.092660	21.517232	0.375547	42.831503	12.296803	0.000000	2.717725	-10.291685	-18.138690	10.294589	0.179674	41.543906	6.237495	0.000000	0.173598	0.750084	-0.631594	0.322390	0.997612	-0.671068	0.285205	1.823755	-0.671068	0.198406	1.823755	-0.552645	0.161203	1.529572	-0.513170	0.099194	1.161881	-0.473695	1.239996	8.485105	-3.512735	0.000000	0.000000	15.913196	-4.605851	4.010876	3.929227	-16.278784	-12.008162	52.189721	82.120222	-6.872588	6.702891	-1.425758	-9.061197	-59.947289	75.949615	54.302169	-17.552465	-5.208922
1.423729	6.540579	-1.362661	82.906605	0.364739	0.913422	0.653357	9.060692	5.733853	-1.868313	21.548012	0.376084	42.789528	12.902518	0.000000	2.422518	-10.199150	-18.525915	10.299688	0.179763	41.502397	5.934248	0.000000	0.170328	0.726664	-0.516007	0.316317	0.966463	-0.548257	0.279833	1.766810	-0.548257	0.194668	1.766810	-0.451506	0.158167	1.481813	-0.419256	0.097326	1.125602	-0.387005	1.216639	8.220165	-2.869875	0.000000	0.000000	15.569125	-4.439657	3.511079	4.288570	-16.137912	-13.173684	53.255247	82.702423	-7.090798	7.189523	-0.390231	-8.844154	-60.385962	75.912433	56.303046	-17.062609	-4.328496
1.440678	6.402360	-1.215465	82.117047	0.366590	0.913993	0.653136	8.869187	5.664422	-1.482862	21.545734	0.376044	42.713893	13.418233	0.000000	2.079025	-10.096186	-19.164567	10.275849	0.179347	41.481987	5.815004	0.000000	0.165901	0.700426	-0.383978	0.308095	0.931567	-0.407977	0.272559	1.703016	-0.407977	0.189608	1.703016	-0.335981	0.154056	1.428309	-0.311982	0.094796	1.084960	-0.287984	1.185014	7.923360	-2.135572	0.000000	0.000000	15.208513	-4.203364	3.023326	4.715133	-15.976372	-14.271367	54.326687	83.224728	-7.151977	8.016280	0.693922	-8.608698	-60.940480	75.745294	59.538309	-16.581399	-3.185090
1.457627	6.260839	-1.053117	81.245523	0.368573	0.914606	0.652914	8.644986	5.606096	-0.973669	21.513134	0.375475	42.609376	13.827607	0.000000	1.686820	-9.971427	-19.838518	10.222718	0.178420	41.425433	5.600688	0.000000	0.159203	0.673175	-0.238412	0.295656	0.895323	-0.253313	0.261555	1.636759	-0.253313	0.181953	1.636759	-0.208611	0.147836	1.372739	-0.193710	0.090969	1.042749	-0.178809	1.137172	7.615095	-1.325978	0.000000	0.000000	14.828436	-3.927826	2.588642	5.224907	-15.826356	-15.195216	55.380896	83.638428	-7.156969	9.148267	1.784584	-8.359287	-61.608115	75.470403	63.782774	-16.197929	-1.804622
1.474576	6.124169	-0.881221	80.304138	0.370665	0.915245	0.652664	8.395105	5.569297	-0.338149	21.453188	0.374429	42.483240	14.093962	0.000000	1.247669	-9.832749	-20.553503	10.137216	0.176928	41.335060	5.297630	0.000000	0.151522	0.646580	-0.082387	0.281392	0.859952	-0.087537	0.248936	1.572096	-0.087537	0.173175	1.572096	-0.072089	0.140704	1.318507	-0.066940	0.086580	1.001553	-0.061791	1.082309	7.314247	-0.458214	0.000000	0.000000	14.433191	-3.632624	2.245176	5.807410	-15.714917	-15.875623	56.393690	83.934575	-7.135806	10.520767	2.883850	-8.065432	-62.510419	75.110412	68.973260	-15.843801	-0.203407
1.491525	6.000327	-0.695541	79.378685	0.372708	0.915887	0.652349	8.106826	5.522836	0.212118	21.351247	0.372650	42.360050	14.387303	0.000000	0.775027	-9.670648	-21.071266	10.009654	0.174701	41.176800	4.705961	0.000000	0.142098	0.621773	0.073518	0.263890	0.826958	0.078113	0.233453	1.511779	0.078113	0.162404	1.511779	0.064328	0.131952	1.267920	0.059733	0.081195	0.963126	0.055138	1.014991	7.033621	0.408885	0.000000	0.000000	14.072187	-3.359498	1.957617	6.405387	-15.617625	-16.479837	57.368242	84.244138	-6.982672	12.168450	3.989644	-7.740765	-63.520458	74.742901	74.271613	-15.953868	1.512222
